<?xml version="1.0" encoding="UTF-8" standalone="no"?>
<!-- Generated by IcoMoon.io -->

<svg
   version="1.1"
   width="34"
   height="34"
   viewBox="0 0 34 34"
   id="svg1"
   sodipodi:docname="facebook.svg"
   inkscape:version="1.4 (86a8ad7, 2024-10-11)"
   inkscape:export-filename="facebook.png"
   inkscape:export-xdpi="300"
   inkscape:export-ydpi="300"
   xmlns:inkscape="http://www.inkscape.org/namespaces/inkscape"
   xmlns:sodipodi="http://sodipodi.sourceforge.net/DTD/sodipodi-0.dtd"
   xmlns="http://www.w3.org/2000/svg"
   xmlns:svg="http://www.w3.org/2000/svg">
  <defs
     id="defs1" />
  <sodipodi:namedview
     id="namedview1"
     pagecolor="#ffffff"
     bordercolor="#000000"
     borderopacity="0.25"
     inkscape:showpageshadow="2"
     inkscape:pageopacity="0.0"
     inkscape:pagecheckerboard="0"
     inkscape:deskcolor="#d1d1d1"
     inkscape:zoom="16"
     inkscape:cx="12.09375"
     inkscape:cy="23.125"
     inkscape:window-width="2400"
     inkscape:window-height="1262"
     inkscape:window-x="2400"
     inkscape:window-y="-8"
     inkscape:window-maximized="1"
     inkscape:current-layer="svg1" />
  <circle
     style="fill:#ffffff;stroke:none;stroke-width:0.25;stroke-linecap:round;stroke-miterlimit:16;stroke-opacity:1;stroke-dasharray:none"
     id="path2"
     cx="17"
     cy="17"
     r="17" />
  <path
     d="M 19.34375,9.1875 H 23.25 V 4.5 H 19.34375 C 16.328125,4.5 13.875,6.953125 13.875,9.96875 V 12.3125 H 10.75 V 17 h 3.125 v 12.5 h 4.6875 V 17 h 3.90625 L 23.25,12.3125 H 18.5625 V 9.96875 c 0,-0.4234375 0.357812,-0.78125 0.78125,-0.78125 z"
     id="path1"
     style="fill:#000000;fill-opacity:1;stroke:none;stroke-width:0.78125;stroke-linecap:round;stroke-linejoin:round;stroke-dasharray:none;stroke-opacity:1;paint-order:stroke markers fill" />
  <path
     d="M -16.40625,8.6875 H -12.5 V 4 h -3.90625 C -19.421875,4 -21.875,6.453125 -21.875,9.46875 V 11.8125 H -25 V 16.5 h 3.125 V 29 h 4.6875 V 16.5 h 3.90625 L -12.5,11.8125 h -4.6875 V 9.46875 c 0,-0.4234375 0.357812,-0.78125 0.78125,-0.78125 z"
     id="path1-1"
     style="fill:#00a19a;fill-opacity:1;stroke:none;stroke-width:0.78125;stroke-linecap:round;stroke-linejoin:round;stroke-dasharray:none;stroke-opacity:1;paint-order:stroke markers fill" />
</svg>
