<?xml version="1.0" encoding="UTF-8" standalone="no"?>
<!-- Generated by IcoMoon.io -->

<svg
   version="1.1"
   width="33"
   height="33"
   viewBox="0 0 33 33"
   id="svg3"
   sodipodi:docname="linkedin.svg"
   inkscape:version="1.4 (86a8ad7, 2024-10-11)"
   inkscape:export-filename="linkedin.png"
   inkscape:export-xdpi="308.36365"
   inkscape:export-ydpi="308.36365"
   xmlns:inkscape="http://www.inkscape.org/namespaces/inkscape"
   xmlns:sodipodi="http://sodipodi.sourceforge.net/DTD/sodipodi-0.dtd"
   xmlns="http://www.w3.org/2000/svg"
   xmlns:svg="http://www.w3.org/2000/svg">
  <defs
     id="defs3" />
  <sodipodi:namedview
     id="namedview3"
     pagecolor="#ffffff"
     bordercolor="#000000"
     borderopacity="0.25"
     inkscape:showpageshadow="2"
     inkscape:pageopacity="0.0"
     inkscape:pagecheckerboard="0"
     inkscape:deskcolor="#d1d1d1"
     inkscape:zoom="16.25"
     inkscape:cx="2.5538462"
     inkscape:cy="13.353846"
     inkscape:window-width="2400"
     inkscape:window-height="1262"
     inkscape:window-x="2400"
     inkscape:window-y="-8"
     inkscape:window-maximized="1"
     inkscape:current-layer="svg3" />
  <ellipse
     style="fill:#ffffff;stroke:none;stroke-width:0.312624;stroke-linecap:round;stroke-miterlimit:16;stroke-opacity:1"
     id="path4"
     cx="16.5"
     cy="16.5"
     rx="16.343689"
     ry="16.343687" />
  <g
     id="g3"
     transform="matrix(0.73076923,0,0,0.73076923,4.8076923,4.0769231)">
    <path
       d="m 12,12 h 5.535 v 2.837 h 0.079 C 18.384,13.456 20.269,12 23.078,12 28.92,12 30,15.637 30,20.367 V 30 h -5.769 v -8.54 c 0,-2.037 -0.042,-4.657 -3.001,-4.657 -3.005,0 -3.463,2.218 -3.463,4.509 V 30 H 12 Z"
       id="path1" />
    <path
       d="M 2,12 H 8 V 30 H 2 Z"
       id="path2" />
    <path
       d="M 8,7 C 8,8.657 6.657,10 5,10 3.343,10 2,8.657 2,7 2,5.343 3.343,4 5,4 6.657,4 8,5.343 8,7 Z"
       id="path3" />
  </g>
  <path
     d="M -15.40625,5.6875 H -11.5 V 1 h -3.90625 C -18.421875,1 -20.875,3.453125 -20.875,6.46875 V 8.8125 H -24 V 13.5 h 3.125 V 26 h 4.6875 V 13.5 h 3.90625 L -11.5,8.8125 h -4.6875 V 6.46875 c 0,-0.4234375 0.357812,-0.78125 0.78125,-0.78125 z"
     id="path1-1"
     style="fill:#00a19a;fill-opacity:1;stroke:none;stroke-width:0.78125;stroke-linecap:round;stroke-linejoin:round;stroke-dasharray:none;stroke-opacity:1;paint-order:stroke markers fill" />
</svg>
