<?xml version="1.0" encoding="UTF-8" standalone="no"?>
<!-- Generated by IcoMoon.io -->

<svg
   version="1.1"
   width="32"
   height="32"
   viewBox="0 0 32 32"
   id="svg1"
   sodipodi:docname="pinterest-wl.svg"
   inkscape:version="1.4 (86a8ad7, 2024-10-11)"
   inkscape:export-filename="pinterest-wl.png"
   inkscape:export-xdpi="318"
   inkscape:export-ydpi="318"
   xmlns:inkscape="http://www.inkscape.org/namespaces/inkscape"
   xmlns:sodipodi="http://sodipodi.sourceforge.net/DTD/sodipodi-0.dtd"
   xmlns="http://www.w3.org/2000/svg"
   xmlns:svg="http://www.w3.org/2000/svg">
  <defs
     id="defs1" />
  <sodipodi:namedview
     id="namedview1"
     pagecolor="#ffffff"
     bordercolor="#000000"
     borderopacity="0.25"
     inkscape:showpageshadow="2"
     inkscape:pageopacity="0.0"
     inkscape:pagecheckerboard="0"
     inkscape:deskcolor="#d1d1d1"
     inkscape:zoom="22.84375"
     inkscape:cx="16"
     inkscape:cy="15.978112"
     inkscape:window-width="1920"
     inkscape:window-height="1112"
     inkscape:window-x="-8"
     inkscape:window-y="-8"
     inkscape:window-maximized="1"
     inkscape:current-layer="svg1" />
  <path
     d="m 16.000035,1.1728032 c -8.1889066,0 -14.8279534,6.6379772 -14.8279534,14.8279528 0,6.283938 3.9104809,11.644805 9.4264414,13.80434 -0.127284,-1.170149 -0.247079,-2.974575 0.05348,-4.251685 0.267402,-1.156245 1.73811,-7.366379 1.73811,-7.366379 0,0 -0.440678,-0.888843 -0.440678,-2.199111 0,-2.058992 1.19689,-3.603504 2.680434,-3.603504 1.263205,0 1.878229,0.948741 1.878229,2.085733 0,1.270692 -0.808623,3.175661 -1.230048,4.934094 -0.354039,1.477126 0.73589,2.680433 2.192694,2.680433 2.63337,0 4.659205,-2.780976 4.659205,-6.792 0,-3.550024 -2.55315,-6.0304408 -6.189812,-6.0304408 -4.218528,0 -6.6914576,3.1617568 -6.6914576,6.4379608 0,1.27711 0.4877405,2.640858 1.1027646,3.383165 0.120865,0.146536 0.140118,0.273819 0.100543,0.427843 -0.113379,0.468487 -0.361527,1.477126 -0.413938,1.68463 -0.067385,0.273819 -0.2139214,0.327299 -0.4952279,0.201086 -1.8514886,-0.862103 -3.0088027,-3.569277 -3.0088027,-5.742717 0,-4.679528 3.3960002,-8.9707888 9.7933156,-8.9707888 5.140529,0 9.138717,3.6634018 9.138717,8.5632688 0,5.10737 -3.221654,9.225355 -7.694748,9.225355 -1.503867,0 -2.914677,-0.781882 -3.396,-1.704953 0,0 -0.742307,2.82804 -0.923071,3.523284 -0.334786,1.289945 -1.236465,2.900772 -1.845071,3.88374 1.390489,0.427843 2.861197,0.662087 4.391804,0.662087 8.188907,0 14.827953,-6.637977 14.827953,-14.827953 0,-8.1953244 -6.637977,-14.8343712 -14.827953,-14.8343712 z"
     id="path1"
     style="fill:#000000;fill-opacity:1;stroke:#ffffff;stroke-width:1;stroke-linecap:round;stroke-linejoin:round;stroke-opacity:1;paint-order:stroke markers fill;stroke-dasharray:none" />
</svg>
