<?xml version="1.0" encoding="UTF-8" standalone="no"?>
<!-- Generated by IcoMoon.io -->

<svg
   version="1.1"
   width="33"
   height="33"
   viewBox="0 0 33 33"
   id="svg1"
   sodipodi:docname="pinterest.svg"
   inkscape:export-filename="pinterest.png"
   inkscape:export-xdpi="308.36365"
   inkscape:export-ydpi="308.36365"
   inkscape:version="1.4 (86a8ad7, 2024-10-11)"
   xmlns:inkscape="http://www.inkscape.org/namespaces/inkscape"
   xmlns:sodipodi="http://sodipodi.sourceforge.net/DTD/sodipodi-0.dtd"
   xmlns="http://www.w3.org/2000/svg"
   xmlns:svg="http://www.w3.org/2000/svg">
  <defs
     id="defs1" />
  <sodipodi:namedview
     id="namedview1"
     pagecolor="#ffffff"
     bordercolor="#000000"
     borderopacity="0.25"
     inkscape:showpageshadow="2"
     inkscape:pageopacity="0.0"
     inkscape:pagecheckerboard="0"
     inkscape:deskcolor="#d1d1d1"
     inkscape:zoom="16.25"
     inkscape:cx="9.5076923"
     inkscape:cy="24"
     inkscape:window-width="2400"
     inkscape:window-height="1262"
     inkscape:window-x="2400"
     inkscape:window-y="-8"
     inkscape:window-maximized="1"
     inkscape:current-layer="svg1" />
  <ellipse
     style="fill:#ffffff;stroke:none;stroke-width:0.312624;stroke-linecap:round;stroke-miterlimit:16;stroke-opacity:1"
     id="path4"
     cx="16.5"
     cy="16.5"
     rx="16.343689"
     ry="16.343687" />
  <path
     d="m 16.5,3.5 c -7.1703125,0 -13,5.8296875 -13,13 0,7.170312 5.8296875,13 13,13 7.170312,0 13,-5.829688 13,-13 0,-7.1703125 -5.829688,-13 -13,-13 z m 0,24.263687 c -1.162688,0 -2.279875,-0.177937 -3.336125,-0.502937 0.457438,-0.746688 1.14725,-1.975188 1.401563,-2.950188 0.137312,-0.528125 0.701187,-2.676375 0.701187,-2.676375 0.365625,0.701188 1.442187,1.295126 2.579688,1.295126 3.397062,0 5.845124,-3.123251 5.845124,-7.007813 0,-3.722062 -3.037125,-6.504875 -6.942,-6.504875 -4.859562,0 -7.4392495,3.265438 -7.4392495,6.814438 0,1.650187 0.8783125,3.707437 2.2855625,4.362312 0.212875,0.101563 0.325,0.05606 0.376188,-0.15275 0.03575,-0.157625 0.228312,-0.918937 0.314437,-1.279687 0.02519,-0.111313 0.01544,-0.212875 -0.07637,-0.325 -0.467188,-0.563875 -0.837687,-1.604688 -0.837687,-2.569125 0,-2.483 1.879312,-4.890438 5.082999,-4.890438 2.767375,0 4.70275,1.884188 4.70275,4.580063 0,3.046875 -1.538875,5.159375 -3.53925,5.159375 -1.107437,0 -1.934562,-0.914063 -1.665625,-2.036125 0.320125,-1.340625 0.934375,-2.782813 0.934375,-3.748063 0,-0.863687 -0.462312,-1.584375 -1.42675,-1.584375 -1.132625,0 -2.036124,1.168375 -2.036124,2.737313 0,0.995312 0.334749,1.6705 0.334749,1.6705 0,0 -1.117187,4.717375 -1.320312,5.595687 -0.228312,0.975 -0.137312,2.340813 -0.04063,3.229688 -4.18925,-1.63475 -7.1605625,-5.707813 -7.1605625,-10.48125 0,-6.2205 5.0423755,-11.263688 11.2628745,-11.263688 6.2205,0 11.263688,5.042375 11.263688,11.263688 0,6.2205 -5.042375,11.263687 -11.263688,11.263687 z"
     id="path1"
     style="stroke-width:0.8125;fill:#000000;fill-opacity:1" />
  <path
     d="m -24.775481,12.456731 h 3.90625 V 7.7692308 h -3.90625 c -3.015625,0 -5.46875,2.4531252 -5.46875,5.4687502 v 2.34375 h -3.125 v 4.6875 h 3.125 v 12.5 h 4.6875 v -12.5 h 3.90625 l 0.78125,-4.6875 h -4.6875 v -2.34375 c 0,-0.423437 0.357812,-0.78125 0.78125,-0.78125 z"
     id="path1-1"
     style="fill:#00a19a;fill-opacity:1;stroke:none;stroke-width:0.78125;stroke-linecap:round;stroke-linejoin:round;stroke-dasharray:none;stroke-opacity:1;paint-order:stroke markers fill" />
</svg>
