<?xml version="1.0" encoding="UTF-8" standalone="no"?>
<!-- Generated by IcoMoon.io -->

<svg
   version="1.1"
   width="34"
   height="34"
   viewBox="0 0 34 34"
   id="svg1"
   sodipodi:docname="tiktok.svg"
   inkscape:export-filename="tiktok.png"
   inkscape:export-xdpi="299.29413"
   inkscape:export-ydpi="299.29413"
   inkscape:version="1.4 (86a8ad7, 2024-10-11)"
   xmlns:inkscape="http://www.inkscape.org/namespaces/inkscape"
   xmlns:sodipodi="http://sodipodi.sourceforge.net/DTD/sodipodi-0.dtd"
   xmlns="http://www.w3.org/2000/svg"
   xmlns:svg="http://www.w3.org/2000/svg">
  <defs
     id="defs1" />
  <sodipodi:namedview
     id="namedview1"
     pagecolor="#ffffff"
     bordercolor="#000000"
     borderopacity="0.25"
     inkscape:showpageshadow="2"
     inkscape:pageopacity="0.0"
     inkscape:pagecheckerboard="0"
     inkscape:deskcolor="#d1d1d1"
     inkscape:zoom="13.90625"
     inkscape:cx="17.653933"
     inkscape:cy="20.206742"
     inkscape:window-width="1920"
     inkscape:window-height="1112"
     inkscape:window-x="6"
     inkscape:window-y="1342"
     inkscape:window-maximized="1"
     inkscape:current-layer="svg1" />
  <ellipse
     style="fill:#ffffff;stroke:none;stroke-width:0.325178;stroke-linecap:round;stroke-miterlimit:16;stroke-opacity:1;fill-opacity:1"
     id="path4"
     cx="17"
     cy="17"
     rx="17.000002"
     ry="17" />
  <path
     d="m 17.636117,2.5244679 c 1.583178,-0.024468 3.15367,-0.01178 4.724161,-0.024468 0.09697,1.848703 0.761231,3.733655 2.114228,5.0386218 1.352997,1.341216 3.262417,1.9574503 5.122901,2.1631638 v 4.8691576 c -1.739956,-0.06071 -3.491693,-0.423208 -5.074871,-1.171751 -0.688733,-0.314461 -1.329435,-0.713201 -1.957451,-1.123722 -0.01178,3.527941 0.01178,7.056789 -0.02446,10.57295 -0.09697,1.691925 -0.652483,3.371165 -1.631208,4.76041 -1.583179,2.319941 -4.325422,3.830622 -7.141069,3.878651 -1.728182,0.09697 -3.45545,-0.374271 -4.9298816,-1.244249 C 6.3979972,28.80505 4.6816034,26.171554 4.4278598,23.344126 4.4033917,22.739672 4.3916108,22.136125 4.4160789,21.543453 4.6335734,19.24798 5.7690757,17.048567 7.5334996,15.550574 9.5389798,13.810618 12.342845,12.97689 14.96456,13.472596 c 0.02447,1.787986 -0.04803,3.576878 -0.04803,5.364864 -1.196219,-0.38696 -2.598152,-0.278212 -3.649376,0.446769 -0.76123,0.495706 -1.3412154,1.256937 -1.642989,2.114228 -0.2537436,0.616234 -0.1812454,1.293186 -0.1694644,1.945669 0.2899926,1.981918 2.1994124,3.649376 4.2293604,3.468131 1.352997,-0.01178 2.646183,-0.79748 3.346697,-1.945669 0.229275,-0.398741 0.483018,-0.809261 0.495705,-1.280499 0.120529,-2.163164 0.0725,-4.313641 0.08428,-6.476804 0.01178,-4.869158 -0.01178,-9.7265344 0.02446,-14.5839109 z"
     id="path1"
     style="stroke:none;stroke-width:0.906227;stroke-linecap:round;stroke-linejoin:round;stroke-dasharray:none;stroke-opacity:1;paint-order:stroke markers fill;fill:#000000;fill-opacity:1"
     sodipodi:nodetypes="ccccccccccccccccccccccccc" />
</svg>
