<?xml version="1.0" encoding="UTF-8" standalone="no"?>
<!-- Generated by IcoMoon.io -->

<svg
   version="1.1"
   width="34"
   height="34"
   viewBox="0 0 34 34"
   id="svg1"
   sodipodi:docname="whatsapp-wl.svg"
   inkscape:version="1.4 (86a8ad7, 2024-10-11)"
   inkscape:export-filename="whatsapp-wl.png"
   inkscape:export-xdpi="299.29413"
   inkscape:export-ydpi="299.29413"
   xmlns:inkscape="http://www.inkscape.org/namespaces/inkscape"
   xmlns:sodipodi="http://sodipodi.sourceforge.net/DTD/sodipodi-0.dtd"
   xmlns="http://www.w3.org/2000/svg"
   xmlns:svg="http://www.w3.org/2000/svg">
  <defs
     id="defs1" />
  <sodipodi:namedview
     id="namedview1"
     pagecolor="#ffffff"
     bordercolor="#000000"
     borderopacity="0.25"
     inkscape:showpageshadow="2"
     inkscape:pageopacity="0.0"
     inkscape:pagecheckerboard="0"
     inkscape:deskcolor="#d1d1d1"
     inkscape:zoom="27.8125"
     inkscape:cx="16"
     inkscape:cy="18.876404"
     inkscape:window-width="1920"
     inkscape:window-height="1112"
     inkscape:window-x="-8"
     inkscape:window-y="-8"
     inkscape:window-maximized="1"
     inkscape:current-layer="svg1" />
  <path
     d="m 28.278489,5.6500103 c -2.994,-3 -6.975,-4.65 -11.219,-4.65 -8.7379993,0 -15.8499993,7.112 -15.8499993,15.8559997 0,2.794 0.731,5.525 2.119,7.925 l -2.25,8.219 8.406,-2.206 c 2.3189993,1.262 4.9249993,1.931 7.5749993,1.931 h 0.006 c 0,0 0,0 0,0 8.738,0 15.856,-7.113 15.856,-15.856 0,-4.238 -1.65,-8.2189997 -4.644,-11.2189997 z m -11.212,24.3999997 v 0 c -2.369,0 -4.688,-0.637 -6.712999,-1.837 l -0.4810003,-0.288 -4.987,1.306 1.331,-4.863 -0.313,-0.5 c -1.325,-2.094 -2.019,-4.519 -2.019,-7.012 0,-7.2689997 5.912,-13.1809997 13.1879993,-13.1809997 3.519,0 6.831,1.375 9.319,3.862 2.488,2.4939997 3.856,5.7999997 3.856,9.3249997 -0.006,7.275 -5.919,13.188 -13.181,13.188 z m 7.225,-9.875 c -0.394,-0.2 -2.344,-1.156 -2.706,-1.288 -0.362,-0.132 -0.625,-0.2 -0.894,0.2 -0.262,0.394 -1.025,1.288 -1.256,1.556 -0.231,0.262 -0.462,0.3 -0.856,0.1 -0.394,-0.2 -1.675,-0.619 -3.188,-1.969 -1.175,-1.05 -1.975,-2.35 -2.206,-2.744 -0.231,-0.394 -0.025,-0.613 0.175,-0.806 0.181,-0.175 0.394,-0.463 0.594,-0.694 0.2,-0.231 0.262,-0.394 0.394,-0.662 0.131,-0.262 0.069,-0.494 -0.031,-0.694 -0.1,-0.2 -0.894,-2.15 -1.219,-2.944 -0.319,-0.7749997 -0.65,-0.6689997 -0.894,-0.6809997 -0.231,-0.012 -0.494,-0.012 -0.756,-0.012 -0.262,0 -0.694,0.1 -1.055999,0.4939997 -0.363,0.394 -1.3870003,1.356 -1.3870003,3.306 0,1.95 1.4190003,3.831 1.6189993,4.1 0.2,0.262 2.794,4.269 6.769,5.981 0.944,0.406 1.681,0.65 2.256,0.837 0.95,0.3 1.813,0.256 2.494,0.156 0.762,-0.113 2.344,-0.956 2.675,-1.881 0.331,-0.925 0.331,-1.719 0.231,-1.881 -0.094,-0.175 -0.356,-0.275 -0.756,-0.475 z"
     id="path1"
     style="stroke:#ffffff;stroke-width:1;stroke-linecap:round;stroke-linejoin:round;stroke-dasharray:none;stroke-opacity:1;paint-order:stroke markers fill" />
</svg>
