<?xml version="1.0" encoding="utf-8"?>
<!-- Generator: Adobe Illustrator 27.8.0, SVG Export Plug-In . SVG Version: 6.00 Build 0)  -->
<svg version="1.1" id="Layer_1" xmlns="http://www.w3.org/2000/svg" xmlns:xlink="http://www.w3.org/1999/xlink" x="0px" y="0px"
	 viewBox="0 0 350 56" style="enable-background:new 0 0 350 56;" xml:space="preserve">
<style type="text/css">
	.st0{fill:#222222;}
	.st1{fill:url(#SVGID_1_);}
</style>
<path class="st0" d="M11.4,25.4v16.4H7.7V21.5c0-0.7,0.2-1.3,0.5-1.7c0.4-0.4,0.9-0.6,1.5-0.6c0.3,0,0.6,0.1,0.8,0.2
	c0.3,0.1,0.6,0.3,0.8,0.6l15.8,15.7V19.2h3.8v20.6c0,0.8-0.2,1.3-0.5,1.7c-0.4,0.4-0.8,0.6-1.4,0.6c-0.6,0-1.2-0.3-1.8-0.8
	L11.4,25.4z"/>
<path class="st0" d="M44.6,41.8c-1.6,0-3-0.3-4.3-0.9c-1.3-0.6-2.5-1.4-3.5-2.4c-1-1-1.7-2.2-2.3-3.6c-0.5-1.4-0.8-2.9-0.8-4.5
	c0-1.7,0.3-3.1,0.8-4.5c0.5-1.4,1.3-2.5,2.3-3.5c1-0.9,2.1-1.7,3.5-2.2c1.3-0.5,2.8-0.8,4.3-0.8H50c1.6,0,3.1,0.3,4.5,0.8
	c1.3,0.5,2.5,1.3,3.5,2.3c1,1,1.7,2.1,2.3,3.5c0.5,1.4,0.8,2.8,0.8,4.5c0,1.6-0.3,3.1-0.8,4.5c-0.5,1.4-1.3,2.6-2.3,3.6
	c-1,1-2.1,1.8-3.5,2.4c-1.3,0.6-2.8,0.9-4.4,0.9H44.6z M50,37.9c1,0,2-0.2,2.9-0.6c0.9-0.4,1.6-0.9,2.2-1.5c0.6-0.7,1.1-1.4,1.5-2.3
	c0.3-0.9,0.5-1.9,0.5-2.9c0-1.1-0.2-2-0.5-2.9c-0.4-0.9-0.8-1.7-1.5-2.3c-0.6-0.6-1.4-1.1-2.2-1.5C52,23.5,51,23.3,50,23.3h-5.4
	c-1,0-2,0.2-2.8,0.5c-0.8,0.4-1.6,0.9-2.2,1.5c-0.6,0.6-1.1,1.4-1.4,2.3c-0.4,0.9-0.5,1.9-0.5,2.9c0,1,0.2,2,0.5,2.9
	c0.3,0.9,0.8,1.7,1.4,2.3c0.6,0.6,1.4,1.2,2.2,1.5c0.9,0.4,1.8,0.6,2.8,0.6H50z"/>
<path class="st0" d="M85.5,41.8l-5.7-6.2h-8.4v-3.4h9.3c1.4,0,2.5-0.4,3.2-1.1c0.7-0.8,1.1-1.9,1.1-3.4c0-1.5-0.4-2.6-1.1-3.3
	c-0.8-0.7-1.8-1-3.2-1H68.5v18.5h-3.9V19.4h16.1c1.3,0,2.4,0.2,3.4,0.6c1,0.4,1.9,0.9,2.6,1.6c0.7,0.7,1.2,1.6,1.6,2.6
	c0.4,1,0.6,2.1,0.6,3.4c0,1.9-0.4,3.4-1.2,4.7c-0.8,1.3-2,2.2-3.4,2.7l6.8,6.8H85.5z"/>
<path class="st0" d="M99.7,41.8V23.3h-8.5v-3.9h20.9v3.9h-8.5v18.5H99.7z"/>
<path class="st0" d="M114.7,41.9V19.4h3.9v22.5H114.7z M132.8,41.9v-9.8h-11.3v-3.5h11.3v-9.3h3.9v22.5H132.8z"/>
<path class="st0" d="M141.2,41.8V19.4h20.1v3.9h-16.2v14.6h16.2v3.9H141.2z M147.9,32.1v-3.3h12.4v3.3H147.9z"/>
<path class="st0" d="M185.7,41.8l-5.7-6.2h-8.4v-3.4h9.4c1.4,0,2.5-0.4,3.2-1.1c0.7-0.8,1.1-1.9,1.1-3.4c0-1.5-0.4-2.6-1.1-3.3
	c-0.7-0.7-1.8-1-3.1-1h-12.2v18.5h-3.9V19.4H181c1.3,0,2.4,0.2,3.4,0.6c1,0.4,1.9,0.9,2.6,1.6c0.7,0.7,1.2,1.6,1.6,2.6
	c0.4,1,0.5,2.1,0.5,3.4c0,1.9-0.4,3.4-1.2,4.7c-0.8,1.3-1.9,2.2-3.4,2.7l6.8,6.8H185.7z"/>
<path class="st0" d="M196.7,25.4v16.4H193V21.5c0-0.7,0.2-1.3,0.5-1.7c0.4-0.4,0.9-0.6,1.5-0.6c0.3,0,0.6,0.1,0.9,0.2
	c0.3,0.1,0.5,0.3,0.8,0.6l15.8,15.7V19.2h3.7v20.6c0,0.8-0.2,1.3-0.5,1.7c-0.4,0.4-0.8,0.6-1.4,0.6c-0.6,0-1.2-0.3-1.8-0.8
	L196.7,25.4z"/>
<path class="st0" d="M229.1,41.8V19.4h13c1.6,0,3,0.3,4.4,0.8c1.4,0.5,2.5,1.3,3.5,2.3c1,1,1.7,2.1,2.3,3.5c0.5,1.4,0.8,2.8,0.8,4.5
	c0,1.6-0.3,3.1-0.8,4.5c-0.6,1.4-1.3,2.6-2.3,3.6c-1,1-2.1,1.8-3.5,2.4c-1.3,0.6-2.8,0.9-4.4,0.9H229.1z M242.1,37.9
	c1,0,1.9-0.2,2.8-0.6c0.8-0.4,1.6-0.9,2.2-1.5c0.6-0.7,1.1-1.4,1.5-2.3c0.3-0.9,0.5-1.9,0.5-2.9c0-1.1-0.2-2-0.5-2.9
	c-0.4-0.9-0.8-1.7-1.5-2.3c-0.6-0.6-1.4-1.1-2.2-1.5c-0.8-0.3-1.8-0.5-2.8-0.5H233v14.6H242.1z"/>
<path class="st0" d="M256.4,41.8V19.4h3.9v22.4H256.4z"/>
<path class="st0" d="M262.5,19.4h4.8l10.2,17.3l10.2-17.3h4.5l-12.9,21.5c-0.2,0.4-0.5,0.7-0.8,0.9c-0.3,0.2-0.7,0.3-1.1,0.3
	c-0.4,0-0.8-0.1-1.1-0.3c-0.3-0.2-0.6-0.5-0.8-0.9L262.5,19.4z"/>
<g>
	<linearGradient id="SVGID_1_" gradientUnits="userSpaceOnUse" x1="265.9709" y1="15.7327" x2="289.0334" y2="15.7327">
		<stop  offset="3.030300e-02" style="stop-color:#1A428A"/>
		<stop  offset="1" style="stop-color:#008FBE"/>
	</linearGradient>
	<path class="st1" d="M277.6,25.5L266,6h4.8l6.8,12.2l7-12.1h4.5L277.6,25.5z"/>
</g>
<path class="st0" d="M294.9,41.8V19.4h20.1v3.9h-16.2v14.6H315v3.9H294.9z M301.6,32.1v-3.3h12.4v3.3H301.6z"/>
<path class="st0" d="M339.4,41.8l-5.7-6.2h-8.4v-3.4h9.4c1.4,0,2.5-0.4,3.2-1.1c0.7-0.8,1.1-1.9,1.1-3.4c0-1.5-0.4-2.6-1.1-3.3
	c-0.7-0.7-1.8-1-3.2-1h-12.2v18.5h-3.9V19.4h16.1c1.3,0,2.4,0.2,3.4,0.6c1,0.4,1.9,0.9,2.6,1.6c0.7,0.7,1.2,1.6,1.6,2.6
	c0.4,1,0.5,2.1,0.5,3.4c0,1.9-0.4,3.4-1.2,4.7c-0.8,1.3-2,2.2-3.4,2.7l6.8,6.8H339.4z"/>
</svg>
