<?xml version="1.0" encoding="UTF-8" standalone="no"?>
<!-- Generated by IcoMoon.io -->

<svg
   version="1.1"
   width="33"
   height="33"
   viewBox="0 0 33 33"
   id="svg3"
   sodipodi:docname="instagram.svg"
   inkscape:version="1.4 (86a8ad7, 2024-10-11)"
   inkscape:export-filename="instagram.png"
   inkscape:export-xdpi="308.36365"
   inkscape:export-ydpi="308.36365"
   xmlns:inkscape="http://www.inkscape.org/namespaces/inkscape"
   xmlns:sodipodi="http://sodipodi.sourceforge.net/DTD/sodipodi-0.dtd"
   xmlns="http://www.w3.org/2000/svg"
   xmlns:svg="http://www.w3.org/2000/svg">
  <defs
     id="defs3" />
  <sodipodi:namedview
     id="namedview3"
     pagecolor="#ffffff"
     bordercolor="#000000"
     borderopacity="0.25"
     inkscape:showpageshadow="2"
     inkscape:pageopacity="0.0"
     inkscape:pagecheckerboard="0"
     inkscape:deskcolor="#d1d1d1"
     inkscape:zoom="19.666407"
     inkscape:cx="11.669645"
     inkscape:cy="15.254438"
     inkscape:window-width="1920"
     inkscape:window-height="1112"
     inkscape:window-x="6"
     inkscape:window-y="1342"
     inkscape:window-maximized="1"
     inkscape:current-layer="svg3" />
  <ellipse
     style="stroke:none;stroke-opacity:1;fill:#ffffff;stroke-width:0.312624;stroke-linecap:round;stroke-miterlimit:16"
     id="path4"
     cx="15.991"
     cy="15.9965"
     rx="16.343689"
     ry="16.343687"
     transform="translate(0.509,0.5035)" />
  <g
     id="g4"
     transform="matrix(0.81262697,0,0,0.81262697,3.5052821,3.5008127)"
     style="fill:#000000;fill-opacity:1;stroke:none;stroke-opacity:1">
    <path
       d="m 16,2.881 c 4.275,0 4.781,0.019 6.462,0.094 1.563,0.069 2.406,0.331 2.969,0.55 0.744,0.288 1.281,0.638 1.837,1.194 0.563,0.563 0.906,1.094 1.2,1.838 0.219,0.563 0.481,1.412 0.55,2.969 0.075,1.688 0.094,2.194 0.094,6.463 0,4.269 -0.019,4.781 -0.094,6.463 -0.069,1.563 -0.331,2.406 -0.55,2.969 -0.288,0.744 -0.637,1.281 -1.194,1.837 -0.563,0.563 -1.094,0.906 -1.837,1.2 -0.563,0.219 -1.413,0.481 -2.969,0.55 -1.688,0.075 -2.194,0.094 -6.463,0.094 -4.269,0 -4.781,-0.019 -6.463,-0.094 C 7.979,28.939 7.136,28.677 6.573,28.458 5.829,28.17 5.292,27.821 4.735,27.264 4.172,26.701 3.829,26.17 3.535,25.427 3.316,24.864 3.054,24.014 2.985,22.458 2.91,20.77 2.891,20.264 2.891,15.995 2.891,11.726 2.91,11.214 2.985,9.532 3.054,7.969 3.316,7.126 3.535,6.563 3.823,5.819 4.173,5.282 4.729,4.725 5.292,4.162 5.823,3.819 6.567,3.525 7.13,3.306 7.979,3.044 9.536,2.975 11.217,2.9 11.724,2.881 15.999,2.881 Z M 16,0 C 11.656,0 11.113,0.019 9.406,0.094 7.706,0.169 6.537,0.444 5.525,0.838 4.469,1.25 3.575,1.794 2.688,2.688 1.794,3.576 1.25,4.469 0.838,5.519 0.444,6.538 0.169,7.7 0.094,9.4 0.019,11.113 0,11.656 0,16 c 0,4.344 0.019,4.887 0.094,6.594 0.075,1.7 0.35,2.869 0.744,3.881 0.413,1.056 0.956,1.95 1.85,2.837 0.887,0.887 1.781,1.438 2.831,1.844 1.019,0.394 2.181,0.669 3.881,0.744 1.706,0.075 2.25,0.094 6.594,0.094 4.344,0 4.888,-0.019 6.594,-0.094 1.7,-0.075 2.869,-0.35 3.881,-0.744 1.05,-0.406 1.944,-0.956 2.831,-1.844 0.887,-0.888 1.438,-1.781 1.844,-2.831 0.394,-1.019 0.669,-2.181 0.744,-3.881 0.075,-1.706 0.094,-2.25 0.094,-6.594 0,-4.344 -0.019,-4.887 -0.094,-6.594 C 31.813,7.712 31.538,6.543 31.144,5.531 30.75,4.468 30.206,3.575 29.313,2.687 28.426,1.8 27.532,1.249 26.482,0.843 25.463,0.449 24.301,0.174 22.601,0.099 c -1.712,-0.081 -2.256,-0.1 -6.6,-0.1 v 0 z"
       id="path1"
       style="fill:#000000;fill-opacity:1;stroke:none;stroke-width:1;stroke-linecap:round;stroke-linejoin:round;stroke-dasharray:none;stroke-opacity:1;paint-order:stroke markers fill" />
    <path
       d="m 16,7.781 c -4.537,0 -8.219,3.681 -8.219,8.219 0,4.538 3.681,8.219 8.219,8.219 4.538,0 8.219,-3.681 8.219,-8.219 0,-4.537 -3.681,-8.219 -8.219,-8.219 z m 0,13.55 c -2.944,0 -5.331,-2.387 -5.331,-5.331 0,-2.944 2.387,-5.331 5.331,-5.331 2.944,0 5.331,2.387 5.331,5.331 0,2.944 -2.387,5.331 -5.331,5.331 z"
       id="path2"
       style="fill:#000000;fill-opacity:1;stroke:none;stroke-width:1;stroke-linecap:round;stroke-linejoin:round;stroke-dasharray:none;stroke-opacity:1;paint-order:stroke markers fill" />
    <path
       d="m 26.462,7.456 c 0,1.06 -0.859,1.919 -1.919,1.919 -1.06,0 -1.919,-0.859 -1.919,-1.919 0,-1.06 0.859,-1.919 1.919,-1.919 1.06,0 1.919,0.859 1.919,1.919 z"
       id="path3"
       style="fill:#000000;fill-opacity:1;stroke:none;stroke-width:1;stroke-linecap:round;stroke-linejoin:round;stroke-dasharray:none;stroke-opacity:1;paint-order:stroke markers fill" />
  </g>
  <g
     id="g3"
     transform="translate(0.509,0.5035)"
     style="stroke:#ffffff;stroke-opacity:1" />
</svg>
