<?xml version="1.0" encoding="UTF-8" standalone="no"?>
<!-- Generated by IcoMoon.io -->

<svg
   version="1.1"
   width="20"
   height="20"
   viewBox="0 0 20 20"
   id="svg1"
   sodipodi:docname="mail.svg"
   inkscape:version="1.4 (86a8ad7, 2024-10-11)"
   inkscape:export-filename="mail.png"
   inkscape:export-xdpi="508.79999"
   inkscape:export-ydpi="508.79999"
   xmlns:inkscape="http://www.inkscape.org/namespaces/inkscape"
   xmlns:sodipodi="http://sodipodi.sourceforge.net/DTD/sodipodi-0.dtd"
   xmlns="http://www.w3.org/2000/svg"
   xmlns:svg="http://www.w3.org/2000/svg">
  <defs
     id="defs1" />
  <sodipodi:namedview
     id="namedview1"
     pagecolor="#ffffff"
     bordercolor="#000000"
     borderopacity="0.25"
     inkscape:showpageshadow="2"
     inkscape:pageopacity="0.0"
     inkscape:pagecheckerboard="0"
     inkscape:deskcolor="#d1d1d1"
     inkscape:zoom="44.5"
     inkscape:cx="10.011236"
     inkscape:cy="10"
     inkscape:window-width="1920"
     inkscape:window-height="1112"
     inkscape:window-x="6"
     inkscape:window-y="1342"
     inkscape:window-maximized="1"
     inkscape:current-layer="svg1" />
  <circle
     style="fill:#ffffff;stroke-width:0.204379;stroke-linecap:round;stroke-miterlimit:16;stroke:none;stroke-opacity:1"
     id="path2"
     cx="10"
     cy="10"
     r="10" />
  <path
     d="m 2.7828406,5.6788332 c 0.417989,0.2401666 6.2081624,3.5695001 6.4240092,3.6932501 0.2158465,0.1237499 0.4950769,0.1824166 0.7760202,0.1824166 0.280942,0 0.560173,-0.058666 0.776019,-0.1824166 0.215847,-0.12375 6.006021,-3.4530834 6.424009,-3.6932499 C 17.601744,5.43775 17.997463,4.5 17.229152,4.5 H 2.7374442 c -0.7683114,0 -0.3725924,0.93775 0.045396,1.1788332 z M 17.377331,7.6982497 c -0.475376,0.2649167 -6.32722,3.5282503 -6.618442,3.6914163 -0.291221,0.163168 -0.495077,0.182418 -0.776019,0.182418 -0.2809433,0 -0.4847986,-0.01926 -0.7760202,-0.182418 C 8.9156279,11.2265 3.0971888,7.9622497 2.6218121,7.6973332 c -0.3340484,-0.187 -0.3306224,0.032083 -0.3306224,0.2007499 0,0.1686666 0,6.6852499 0,6.6852499 0,0.385 0.4847986,0.916667 0.8565346,0.916667 H 16.852275 c 0.371737,0 0.856535,-0.531667 0.856535,-0.916667 0,0 0,-6.5156666 0,-6.6843332 0,-0.1686666 0.0033,-0.3877499 -0.331479,-0.2007501 z"
     id="path1"
     style="fill:#000000;fill-opacity:1;stroke:none;stroke-width:0.88609;stroke-linecap:round;stroke-linejoin:round;stroke-dasharray:none;stroke-opacity:1;paint-order:stroke markers fill" />
</svg>
