<?xml version="1.0" encoding="UTF-8" standalone="no"?>
<!-- Generated by IcoMoon.io -->

<svg
   version="1.1"
   width="20"
   height="20"
   viewBox="0 0 20 20"
   id="svg1"
   sodipodi:docname="network.svg"
   inkscape:version="1.4 (86a8ad7, 2024-10-11)"
   inkscape:export-filename="network.png"
   inkscape:export-xdpi="508.79999"
   inkscape:export-ydpi="508.79999"
   xmlns:inkscape="http://www.inkscape.org/namespaces/inkscape"
   xmlns:sodipodi="http://sodipodi.sourceforge.net/DTD/sodipodi-0.dtd"
   xmlns="http://www.w3.org/2000/svg"
   xmlns:svg="http://www.w3.org/2000/svg">
  <defs
     id="defs1" />
  <sodipodi:namedview
     id="namedview1"
     pagecolor="#ffffff"
     bordercolor="#000000"
     borderopacity="0.25"
     inkscape:showpageshadow="2"
     inkscape:pageopacity="0.0"
     inkscape:pagecheckerboard="0"
     inkscape:deskcolor="#d1d1d1"
     inkscape:zoom="44.5"
     inkscape:cx="10.033708"
     inkscape:cy="10"
     inkscape:window-width="1920"
     inkscape:window-height="1112"
     inkscape:window-x="6"
     inkscape:window-y="1342"
     inkscape:window-maximized="1"
     inkscape:current-layer="svg1" />
  <circle
     style="fill:#ffffff;stroke-width:0.301775;stroke-linecap:round;stroke-miterlimit:16"
     id="path2"
     cx="10"
     cy="10"
     r="10" />
  <path
     d="m 5.3762416,6.9820652 c 0.1956522,0 0.3854348,0.02837 0.5634783,0.08413 0.675,-0.7561952 1.4233696,-1.4448909 2.2333696,-2.0543474 -0.034239,-0.1428261 -0.052826,-0.2925 -0.052826,-0.4451087 0,-0.2122826 0.035217,-0.4167391 0.099783,-0.6075 -0.9088049,-0.6495652 -1.8948918,-1.196413 -2.945544,-1.6180434 -0.9831522,0.6075 -1.841087,1.3998913 -2.5258696,2.3292391 0.5077174,0.9 1.1113044,1.7383695 1.7980435,2.501413 C 4.7971112,7.0505435 5.0778721,6.9820652 5.3762416,6.9820652 Z M 3.4608068,8.8965217 c 0,-0.2690217 0.056739,-0.525326 0.1555435,-0.7561956 C 3.0020025,7.4633696 2.4453721,6.7355435 1.9581982,5.9597826 c -0.6114131,1.215 -0.9586957,2.5875 -0.9586957,4.0411954 0,1.681631 0.4636957,3.255652 1.2668478,4.602718 0.2876087,-1.618044 0.8325,-3.149022 1.5847826,-4.55087 C 3.6065677,9.7319565 3.4608068,9.3298913 3.4608068,8.8965217 Z M 10.03472,2.6522826 c 0.50576,0 0.963586,0.1966304 1.306956,0.5175 0.998805,-0.4294565 2.050435,-0.7601087 3.14511,-0.9704348 C 13.165155,1.4372826 11.633198,1 9.9995025,1 8.8852634,1 7.818959,1.2044565 6.8338503,1.5752174 c 0.7816305,0.386413 1.5270652,0.836413 2.2275,1.3451087 C 9.3470025,2.7501087 9.6786329,2.6522826 10.03472,2.6522826 Z m 2.862391,9.0185874 c 0.119349,-0.248479 0.288587,-0.468587 0.497935,-0.64174 -0.565435,-1.7383691 -1.460544,-3.3299996 -2.613913,-4.6985865 -0.228913,0.097826 -0.481304,0.1506522 -0.747391,0.1506522 -0.4157612,0 -0.7982612,-0.1340218 -1.112283,-0.3570653 -0.6945652,0.5272826 -1.3372826,1.1181522 -1.9213043,1.7638044 0.183913,0.2925 0.2905435,0.6378261 0.2905435,1.0085869 0,0.198587 -0.030326,0.3913044 -0.088044,0.5732609 1.6796739,1.1210874 3.6136968,1.8919564 5.6944568,2.2010874 z m 2.483804,2.585543 c 0.02544,0.362935 0.04011,0.727826 0.04011,1.09663 0,0.649566 -0.04109,1.289348 -0.119348,1.91837 1.526087,-1.114239 2.688261,-2.698043 3.274239,-4.538152 -0.694565,0.168261 -1.406738,0.288587 -2.133587,0.357065 -0.169238,0.525326 -0.559564,0.947935 -1.061412,1.166087 z m -2.931848,-1.298152 c -2.222608,-0.368804 -4.2818471,-1.216957 -6.0749993,-2.43 -0.2915217,0.178043 -0.6329348,0.282717 -0.9988043,0.282717 -0.1359783,0 -0.266087,-0.0137 -0.3932609,-0.04011 -0.8579348,1.625869 -1.4067391,3.440543 -1.5642391,5.364782 0.8569565,0.919565 1.9017391,1.660109 3.0766304,2.157065 1.4595652,-2.243152 3.4982609,-4.097934 5.9546742,-5.334456 z m 3.592174,-9.6290219 c -1.442935,0.1398913 -2.820326,0.5028261 -4.101848,1.0447826 0.0059,0.064565 0.0098,0.1281522 0.0098,0.1927174 0,0.3022826 -0.07239,0.5869566 -0.196631,0.8403261 1.2825,1.5055435 2.276414,3.2576087 2.904457,5.1759778 0.779674,0.01565 1.444891,0.491087 1.731523,1.169022 0.866738,-0.08804 1.71,-0.254348 2.521955,-0.493043 0.0587,-0.41087 0.09,-0.831522 0.09,-1.259022 C 18.999502,7.3547826 17.858851,4.9756522 16.041241,3.3292391 Z M 13.412654,13.980543 C 11.119612,15.054674 9.2022199,16.708913 7.8140677,18.730978 8.5135242,18.906087 9.2452634,19 9.9995025,19 c 1.3568485,0 2.6432605,-0.302283 3.7976095,-0.840326 0.185869,-0.907826 0.283695,-1.845978 0.283695,-2.806631 0,-0.347282 -0.01565,-0.69163 -0.04207,-1.032065 -0.230869,-0.07435 -0.443152,-0.188804 -0.626087,-0.340435 z"
     id="path1"
     style="fill:#000000;fill-opacity:1;stroke:none;stroke-width:0.978261;stroke-linecap:round;stroke-linejoin:round;stroke-dasharray:none;stroke-opacity:1;paint-order:stroke markers fill" />
</svg>
