<?xml version="1.0" encoding="UTF-8" standalone="no"?>
<!-- Generated by IcoMoon.io -->

<svg
   version="1.1"
   width="32"
   height="32"
   viewBox="0 0 32 32"
   id="svg1"
   sodipodi:docname="pinterest.svg"
   inkscape:version="1.4 (86a8ad7, 2024-10-11)"
   inkscape:export-filename="pinterest.png"
   inkscape:export-xdpi="318"
   inkscape:export-ydpi="318"
   xmlns:inkscape="http://www.inkscape.org/namespaces/inkscape"
   xmlns:sodipodi="http://sodipodi.sourceforge.net/DTD/sodipodi-0.dtd"
   xmlns="http://www.w3.org/2000/svg"
   xmlns:svg="http://www.w3.org/2000/svg">
  <defs
     id="defs1" />
  <sodipodi:namedview
     id="namedview1"
     pagecolor="#ffffff"
     bordercolor="#000000"
     borderopacity="0.25"
     inkscape:showpageshadow="2"
     inkscape:pageopacity="0.0"
     inkscape:pagecheckerboard="0"
     inkscape:deskcolor="#d1d1d1"
     inkscape:zoom="22.84375"
     inkscape:cx="16"
     inkscape:cy="15.978112"
     inkscape:window-width="1920"
     inkscape:window-height="1112"
     inkscape:window-x="6"
     inkscape:window-y="1342"
     inkscape:window-maximized="1"
     inkscape:current-layer="svg1" />
  <ellipse
     style="fill:#ffffff;stroke:none;stroke-width:0.30605;stroke-linecap:round;stroke-miterlimit:16;stroke-opacity:1;fill-opacity:1"
     id="path4"
     cx="16"
     cy="16"
     rx="16"
     ry="15.999998" />
  <path
     d="m 16.000487,2.5000001 c -7.4536475,0 -13.4965927,6.0419717 -13.4965927,13.4965919 0,5.719721 3.5593697,10.599251 8.5800677,12.564887 -0.115856,-1.065085 -0.224895,-2.707496 0.04868,-3.869938 0.243393,-1.052429 1.58205,-6.704972 1.58205,-6.704972 0,0 -0.401111,-0.809037 -0.401111,-2.001659 0,-1.874121 1.089425,-3.279956 2.439766,-3.279956 1.149785,0 1.709588,0.863556 1.709588,1.898461 0,1.1566 -0.736019,2.890527 -1.119606,4.491076 -0.322251,1.344498 0.669817,2.439764 1.995818,2.439764 2.396927,0 4.240868,-2.53128 4.240868,-6.182165 0,-3.231277 -2.323909,-5.4889846 -5.634046,-5.4889846 -3.839758,0 -6.0906504,2.8778716 -6.0906504,5.8599146 0,1.162441 0.4439474,2.403742 1.0037504,3.0794 0.110013,0.133379 0.127537,0.249233 0.09152,0.389428 -0.103199,0.426423 -0.329067,1.344499 -0.376772,1.533372 -0.06133,0.249233 -0.194714,0.297911 -0.450763,0.183031 -1.6852482,-0.784698 -2.7386503,-3.248802 -2.7386503,-5.227095 0,-4.259366 3.0910823,-8.1653265 8.9140013,-8.1653265 4.678975,0 8.318177,3.3344755 8.318177,7.7943965 0,4.648794 -2.932391,8.397036 -7.003858,8.397036 -1.368839,0 -2.652976,-0.711679 -3.091083,-1.55187 0,0 -0.675657,2.574118 -0.840191,3.206938 -0.304726,1.174125 -1.125446,2.64032 -1.679407,3.53503 1.265641,0.389428 2.604298,0.60264 3.997476,0.60264 7.453648,0 13.496593,-6.041971 13.496593,-13.496592 0,-7.4594891 -6.041972,-13.5024343 -13.496593,-13.5024343 z"
     id="path1"
     style="fill:#000000;fill-opacity:1;stroke:none;stroke-width:0.910213;stroke-linecap:round;stroke-linejoin:round;stroke-dasharray:none;stroke-opacity:1;paint-order:stroke markers fill" />
</svg>
