<?xml version="1.0" encoding="UTF-8" standalone="no"?>
<!-- Generated by IcoMoon.io -->

<svg
   version="1.1"
   width="34"
   height="34"
   viewBox="0 0 34 34"
   id="svg1"
   sodipodi:docname="tiktok-wl.svg"
   inkscape:export-filename="tiktok-wl.png"
   inkscape:export-xdpi="299.29413"
   inkscape:export-ydpi="299.29413"
   inkscape:version="1.4 (86a8ad7, 2024-10-11)"
   xmlns:inkscape="http://www.inkscape.org/namespaces/inkscape"
   xmlns:sodipodi="http://sodipodi.sourceforge.net/DTD/sodipodi-0.dtd"
   xmlns="http://www.w3.org/2000/svg"
   xmlns:svg="http://www.w3.org/2000/svg">
  <defs
     id="defs1" />
  <sodipodi:namedview
     id="namedview1"
     pagecolor="#ffffff"
     bordercolor="#000000"
     borderopacity="0.25"
     inkscape:showpageshadow="2"
     inkscape:pageopacity="0.0"
     inkscape:pagecheckerboard="0"
     inkscape:deskcolor="#d1d1d1"
     inkscape:zoom="27.8125"
     inkscape:cx="15.982022"
     inkscape:cy="24.629213"
     inkscape:window-width="1920"
     inkscape:window-height="1112"
     inkscape:window-x="-8"
     inkscape:window-y="-8"
     inkscape:window-maximized="1"
     inkscape:current-layer="svg1" />
  <path
     d="m 17.701955,1.0265695 c 1.747,-0.027 3.48,-0.013 5.213,-0.027 0.107,2.04000002 0.84,4.12000002 2.333,5.56000002 1.493,1.48 3.6,2.16 5.653,2.387 V 14.31957 c -1.92,-0.067 -3.853,-0.467 -5.6,-1.293 -0.76,-0.347 -1.467,-0.787 -2.16,-1.24 -0.013,3.893 0.013,7.787 -0.027,11.667 -0.107,1.867 -0.72,3.72 -1.8,5.253 -1.747,2.56 -4.773,4.227 -7.88,4.28 -1.907,0.107 -3.813,-0.413 -5.44,-1.373 -2.693,-1.587 -4.587,-4.493 -4.867,-7.613 -0.027,-0.667 -0.04,-1.333 -0.013,-1.987 0.24,-2.533 1.493,-4.96 3.44,-6.613 2.213,-1.92 5.307,-2.84 8.2,-2.293 0.027,1.973 -0.053,3.947 -0.053,5.92 -1.32,-0.427 -2.867,-0.307 -4.027,0.493 -0.84,0.547 -1.48,1.387 -1.813,2.333 -0.28,0.68 -0.2,1.427 -0.187,2.147 0.32,2.187 2.427,4.027 4.667,3.827 1.493,-0.013 2.92,-0.88 3.693,-2.147 0.253,-0.44 0.533,-0.893 0.547,-1.413 0.133,-2.387 0.08,-4.76 0.093,-7.147 0.013,-5.373 -0.013,-10.7330005 0.027,-16.0930005 z"
     id="path1"
     style="stroke:#ffffff;stroke-width:1;stroke-linecap:round;stroke-linejoin:round;stroke-dasharray:none;stroke-opacity:1;paint-order:stroke markers fill"
     sodipodi:nodetypes="ccccccccccccccccccccccccc" />
</svg>
