<?xml version="1.0" encoding="UTF-8" standalone="no"?>
<!-- Generated by IcoMoon.io -->

<svg
   version="1.1"
   width="34"
   height="34"
   viewBox="0 0 34 34"
   id="svg1"
   sodipodi:docname="whatsapp.svg"
   inkscape:version="1.4 (86a8ad7, 2024-10-11)"
   inkscape:export-filename="whatsapp.png"
   inkscape:export-xdpi="299.29413"
   inkscape:export-ydpi="299.29413"
   xmlns:inkscape="http://www.inkscape.org/namespaces/inkscape"
   xmlns:sodipodi="http://sodipodi.sourceforge.net/DTD/sodipodi-0.dtd"
   xmlns="http://www.w3.org/2000/svg"
   xmlns:svg="http://www.w3.org/2000/svg">
  <defs
     id="defs1" />
  <sodipodi:namedview
     id="namedview1"
     pagecolor="#ffffff"
     bordercolor="#000000"
     borderopacity="0.25"
     inkscape:showpageshadow="2"
     inkscape:pageopacity="0.0"
     inkscape:pagecheckerboard="0"
     inkscape:deskcolor="#d1d1d1"
     inkscape:zoom="9.8332037"
     inkscape:cx="7.4746748"
     inkscape:cy="24.508798"
     inkscape:window-width="1920"
     inkscape:window-height="1112"
     inkscape:window-x="6"
     inkscape:window-y="1342"
     inkscape:window-maximized="1"
     inkscape:current-layer="svg1" />
  <ellipse
     style="fill:#ffffff;stroke:none;stroke-width:0.325178;stroke-linecap:round;stroke-miterlimit:16;stroke-opacity:1;fill-opacity:1"
     id="path4"
     cx="17"
     cy="17"
     rx="17.000002"
     ry="17" />
  <path
     d="M 25.458825,8.4875001 C 23.213326,6.2375001 20.227575,5 17.044574,5 10.491076,5 5.1570759,10.334 5.1570759,16.892001 c 0,2.0955 0.5482501,4.14375 1.58925,5.94375 L 5.0588258,29 11.363326,27.345502 c 1.739249,0.946499 3.693749,1.448249 5.681248,1.448249 h 0.0046 c 0,0 0,0 0,0 6.5535,0 11.892,-5.33475 11.892,-11.892001 0,-3.178499 -1.2375,-6.164249 -3.483,-8.4142497 z m -8.409,18.3000009 v 0 c -1.77675,0 -3.516,-0.47775 -5.034749,-1.377751 l -0.36075,-0.215999 -3.7402499,0.979499 0.99825,-3.647249 -0.23475,-0.375 c -0.9937501,-1.5705 -1.5142501,-3.38925 -1.5142501,-5.259 0,-5.451751 4.434,-9.8857509 9.891,-9.8857509 2.639249,0 5.12325,1.0312501 6.989249,2.8964999 1.866001,1.870501 2.891999,4.35 2.891999,6.993751 -0.0046,5.45625 -4.439247,9.891 -9.885749,9.891 z m 5.41875,-7.406251 c -0.295499,-0.149999 -1.758,-0.866999 -2.0295,-0.965998 -0.2715,-0.099 -0.46875,-0.15 -0.670499,0.149999 -0.1965,0.2955 -0.768751,0.965999 -0.942001,1.167001 -0.173249,0.196499 -0.346499,0.224999 -0.642,0.07501 -0.295499,-0.15 -1.256252,-0.464251 -2.391001,-1.476749 -0.881248,-0.787501 -1.48125,-1.762502 -1.654499,-2.058001 -0.17325,-0.295501 -0.01875,-0.45975 0.131251,-0.604501 0.135749,-0.13125 0.295498,-0.347249 0.4455,-0.5205 0.149999,-0.17325 0.1965,-0.2955 0.2955,-0.4965 0.09824,-0.196499 0.05175,-0.3705 -0.02326,-0.520499 -0.07499,-0.150002 -0.670494,-1.612502 -0.914244,-2.208002 -0.23925,-0.581251 -0.4875,-0.501751 -0.6705,-0.510749 -0.173252,-0.009 -0.370501,-0.009 -0.567002,-0.009 -0.196499,0 -0.520499,0.075 -0.791998,0.370499 -0.272249,0.2955 -1.04025,1.017 -1.04025,2.4795 0,1.462499 1.064249,2.873249 1.214248,3.074999 0.150001,0.1965 2.095502,3.201751 5.07675,4.48575 0.708001,0.3045 1.260752,0.4875 1.692001,0.62775 0.7125,0.225002 1.35975,0.191999 1.8705,0.116993 0.571499,-0.08474 1.758,-0.716999 2.00625,-1.410749 0.248251,-0.693749 0.248251,-1.289249 0.173251,-1.41075 -0.0705,-0.13125 -0.267,-0.20625 -0.567,-0.35625 z"
     id="path1"
     style="stroke:none;stroke-width:0.75;stroke-linecap:round;stroke-linejoin:round;stroke-dasharray:none;stroke-opacity:1;paint-order:stroke markers fill;fill:#000000;fill-opacity:1" />
</svg>
