<?xml version="1.0" encoding="UTF-8" standalone="no"?>
<!-- Generated by IcoMoon.io -->

<svg
   version="1.1"
   width="34"
   height="34"
   viewBox="0 0 34 34"
   id="svg1"
   sodipodi:docname="youtube.svg"
   inkscape:version="1.4 (86a8ad7, 2024-10-11)"
   inkscape:export-filename="youtube.png"
   inkscape:export-xdpi="299.29001"
   inkscape:export-ydpi="299.29001"
   xmlns:inkscape="http://www.inkscape.org/namespaces/inkscape"
   xmlns:sodipodi="http://sodipodi.sourceforge.net/DTD/sodipodi-0.dtd"
   xmlns="http://www.w3.org/2000/svg"
   xmlns:svg="http://www.w3.org/2000/svg">
  <defs
     id="defs1" />
  <sodipodi:namedview
     id="namedview1"
     pagecolor="#ffffff"
     bordercolor="#000000"
     borderopacity="0.25"
     inkscape:showpageshadow="2"
     inkscape:pageopacity="0.0"
     inkscape:pagecheckerboard="0"
     inkscape:deskcolor="#d1d1d1"
     inkscape:zoom="9.8332037"
     inkscape:cx="18.762959"
     inkscape:cy="27.763078"
     inkscape:window-width="1920"
     inkscape:window-height="1112"
     inkscape:window-x="6"
     inkscape:window-y="1342"
     inkscape:window-maximized="1"
     inkscape:current-layer="svg1" />
  <ellipse
     style="fill:#ffffff;stroke:none;stroke-width:0.325178;stroke-linecap:round;stroke-miterlimit:16;stroke-opacity:1"
     id="path4"
     cx="17"
     cy="17"
     rx="17.000002"
     ry="17" />
  <path
     d="m 30.929615,11.315293 c 0,0 -0.278148,-1.9603655 -1.13303,-2.8214692 C 28.713318,7.3607926 27.502974,7.3554607 26.947566,7.2888118 22.970848,7 16.999996,7 16.999996,7 h -0.01066 c 0,0 -5.970852,0 -9.9475697,0.2888118 C 6.4863589,7.3554598 5.276015,7.3607918 4.1927483,8.4938239 3.3369765,9.3549275 3.065049,11.315293 3.065049,11.315293 c 0,0 -0.28348,2.299832 -0.28348,4.604106 v 2.154981 c 0,2.298943 0.28348,4.604105 0.28348,4.604105 0,0 0.2781481,1.960367 1.1276993,2.82147 C 5.276015,26.632987 6.697858,26.593887 7.3305782,26.71652 9.6081932,26.933352 17,27 17,27 c 0,0 5.976185,-0.01066 9.952902,-0.294145 0.555407,-0.06664 1.76664,-0.07198 2.849017,-1.205011 0.854885,-0.861104 1.133032,-2.821469 1.133032,-2.821469 0,0 0.28348,-2.298944 0.28348,-4.604106 v -2.154981 c -0.0053,-2.299832 -0.288812,-4.604106 -0.288812,-4.604106 z m -16.872833,9.375278 v -7.992536 l 7.681507,4.010488 z"
     id="path1"
     style="fill:#000000;fill-opacity:1;stroke:none;stroke-width:0.888653;stroke-linecap:round;stroke-linejoin:round;stroke-dasharray:none;stroke-opacity:1;paint-order:stroke markers fill" />
</svg>
