<?xml version="1.0" encoding="UTF-8" standalone="no"?>
<!-- Generated by IcoMoon.io -->

<svg
   version="1.1"
   width="34"
   height="34"
   viewBox="0 0 34 34"
   id="svg1"
   sodipodi:docname="youtube-wl.svg"
   inkscape:version="1.4 (86a8ad7, 2024-10-11)"
   inkscape:export-filename="youtube-wl.png"
   inkscape:export-xdpi="299.29001"
   inkscape:export-ydpi="299.29001"
   xmlns:inkscape="http://www.inkscape.org/namespaces/inkscape"
   xmlns:sodipodi="http://sodipodi.sourceforge.net/DTD/sodipodi-0.dtd"
   xmlns="http://www.w3.org/2000/svg"
   xmlns:svg="http://www.w3.org/2000/svg">
  <defs
     id="defs1" />
  <sodipodi:namedview
     id="namedview1"
     pagecolor="#ffffff"
     bordercolor="#000000"
     borderopacity="0.25"
     inkscape:showpageshadow="2"
     inkscape:pageopacity="0.0"
     inkscape:pagecheckerboard="0"
     inkscape:deskcolor="#d1d1d1"
     inkscape:zoom="27.8125"
     inkscape:cx="16"
     inkscape:cy="16"
     inkscape:window-width="1920"
     inkscape:window-height="1112"
     inkscape:window-x="-8"
     inkscape:window-y="-8"
     inkscape:window-maximized="1"
     inkscape:current-layer="svg1" />
  <path
     d="m 32.675,10.603 c 0,0 -0.313,-2.206 -1.275,-3.175 C 30.181,6.153 28.819,6.147 28.194,6.072 23.719,5.747 17,5.747 17,5.747 h -0.012 c 0,0 -6.719,0 -11.194,0.325 C 5.169,6.147 3.807,6.153 2.588,7.428 1.625,8.397 1.319,10.603 1.319,10.603 1.319,10.603 1,13.191 1,15.784 v 2.425 c 0,2.587 0.319,5.181 0.319,5.181 0,0 0.313,2.206 1.269,3.175 1.219,1.275 2.819,1.231 3.531,1.369 C 8.682,28.178 17,28.253 17,28.253 c 0,0 6.725,-0.012 11.2,-0.331 0.625,-0.075 1.988,-0.081 3.206,-1.356 0.962,-0.969 1.275,-3.175 1.275,-3.175 0,0 0.319,-2.587 0.319,-5.181 v -2.425 c -0.006,-2.588 -0.325,-5.181 -0.325,-5.181 z m -18.987,10.55 v -8.994 l 8.644,4.513 z"
     id="path1"
     style="stroke:#ffffff;stroke-width:1;stroke-linecap:round;stroke-linejoin:round;stroke-dasharray:none;stroke-opacity:1;paint-order:stroke markers fill" />
</svg>
